# xmcd
#
# Track frame offsets: 
#        150
#        14068
#        53100
#        72884
#        98396
#        125844
#        155794
#        181402
#        207421
#        219902
#
# Disc length: 3270 seconds
#
# Revision: 1
# Processed by: cddbd v1.5.2PL0 Copyright (c) Steve Scherf et al.
# Submitted via: ExactAudioCopyFreeDBPlugin 1.0
#
DISCID=900cc40a
DTITLE=Trygve Seim - Rumi Songs
DYEAR=2016
DGENRE=Jazz
TTITLE0=In Your Beauty
TTITLE1=Seeing Double
TTITLE2=Across The Doorsill
TTITLE3=The Guest House
TTITLE4=Leaving My Self
TTITLE5=When I See Your Face
TTITLE6=Like Every Other Day
TTITLE7=The Drunk And The Madman
TTITLE8=Whirling Rhythms
TTITLE9=There Is Some Kiss We Want
EXTD=YEAR: 2016
EXTT0=
EXTT1=
EXTT2=
EXTT3=
EXTT4=
EXTT5=
EXTT6=
EXTT7=
EXTT8=
EXTT9=
PLAYORDER=
